<?xml version="1.0" encoding="UTF-8"?>
<svg id="Layer_1" data-name="Layer 1" xmlns="http://www.w3.org/2000/svg" viewBox="0 0 93.37 231.73">
  <defs>
    <style>
      .cls-1 {
        fill: #1f1f1f;
      }
    </style>
  </defs>
  <circle class="cls-1" cx="54.29" cy="5.79" r="5.79"/>
  <g>
    <path class="cls-1" d="m25.46,32.75v4.72h35.71c9.34,0,9.34,8.53,9.34,14.39v179.87h22.85V32.75H25.46Z"/>
    <path class="cls-1" d="m70.51,194.03v4.98h-36.17l-2.7-15.82c0-.1-.03-.23-.03-.36,0,0-.07-.29-.16-.85l-.81-4.72c-.1-.55-.2-1.14-.29-1.76l-2.41-14c-.46-2.67-.98-5.53-1.5-8.56l-1.01-5.79-3.42-19.83h.03l-2.38-13.54L3.71,21.52,0,0h22.27l4.56,24.9,1.43,7.85h-2.8v4.72h3.68l26.04,142.17c1.95,11.13,7.1,14.39,13.44,14.39h1.89Z"/>
  </g>
</svg>