<?xml version="1.0" encoding="UTF-8"?>
<svg id="Layer_1" data-name="Layer 1" xmlns="http://www.w3.org/2000/svg" viewBox="0 0 189.69 231.74">
  <defs>
    <style>
      .cls-1 {
        fill: #1f1f1f;
      }
    </style>
  </defs>
  <g>
    <path class="cls-1" d="m152.37,126.24c19.15-4.41,32.41-27.63,32.41-49.68,0-31.43-18.68-43.8-41.98-43.8H62.6v4.71h35.72c9.36,0,9.36,8.52,9.36,14.4v159.34c0,8.82,0,15.57-9.1,15.57h-2.46v4.97h51.08c24.06,0,42.49-23.22,42.49-51.71,0-24.99-14.49-48.21-37.32-53.79Zm-21.86-87.6h6.14c9.57,0,25.04,2.38,25.04,41.47,0,25.25-10.08,43.5-21.35,43.5h-9.83V38.63Zm12.5,186.97h-6.61c-1.99,0-5.89-.3-5.89-7.96v-87.3h9.32c6.39,0,25.54,5.88,25.54,50.55,0,26.77-7.37,44.71-22.36,44.71Z"/>
    <circle class="cls-1" cx="138.7" cy="5.79" r="5.79"/>
  </g>
  <g>
    <path class="cls-1" d="m92.34,179.64L63.98,24.91,59.43,0h-14.92l-.9,5.36-3.43,20.2-.14.91L15.46,177.87c-1.95,9.43-4.66,16.17-15.46,16.17v4.97h34.86v-4.97c-11.06-.61-12.03-6.75-11.56-11.46l7.15-47.66h29.95c4.88,27.16,8.31,47.92,8.35,47.92.98,8.82-1.23,11.2-9.57,11.2v4.97h49.32v-4.97s-2.7,0-2.71,0c-6.34-.01-11.5-3.26-13.44-14.4Zm-60.66-52.33l12.75-84.07,14.74,84.07h-27.49Z"/>
    <circle class="cls-1" cx="49.31" cy="225.95" r="5.79"/>
  </g>
</svg>