<?xml version="1.0" encoding="UTF-8"?>
<svg id="Layer_1" data-name="Layer 1" xmlns="http://www.w3.org/2000/svg" viewBox="0 0 1219.72 196.26">
  <defs>
    <style>
      .cls-1 {
        fill: #1f1f1f;
      }
    </style>
  </defs>
  <path class="cls-1" d="m141.42,93.89c16.22-3.12,27.45-19.55,27.45-35.16,0-22.24-15.79-30.99-35.55-30.99h-39.32v3.33h1.65c7.92,0,7.92,6.03,7.92,10.19v112.75c0,6.24,0,11.02-7.71,11.02h-2.08v3.52h43.26c20.38,0,35.98-16.43,35.98-36.59,0-17.69-12.27-34.12-31.61-38.06Zm-18.51-61.99h5.2c8.11,0,21.2,1.68,21.2,29.34,0,17.87-8.54,30.78-18.08,30.78h-8.32V31.9Zm10.59,132.3h-5.6c-1.65,0-4.99-.21-4.99-5.63v-61.78h7.89c5.41,0,21.63,4.16,21.63,35.77,0,18.94-6.24,31.64-18.94,31.64Z"/>
  <path class="cls-1" d="m228.96,25.47c-25.37,0-42.22,33.26-42.22,71.96,0,36.38,15.6,73.4,42.22,73.4s42.22-38.06,42.22-73.4c0-38.71-16.43-71.96-42.22-71.96Zm0,140.59c-13.52,0-21.85-16.03-21.85-67.59s8.75-68.23,21.85-68.23,21.85,16.83,21.85,68.23-8.75,67.59-21.85,67.59Z"/>
  <path class="cls-1" d="m333.17,27.74v3.33c7.89,0,9.55,2.51,9.55,7.07,0,3.12-16.43,71.75-21.2,92.77l-18.73-92.77c-.83-4.38,1.65-7.07,6.24-7.07h.83v-3.33h-38.67v3.33h1.44c5.02,0,7.5,2.69,9.18,9.79l29.74,127.9h7.28l30.57-126.46c1.44-6.24,6.42-11.23,13.52-11.23v-3.33h-29.74Z"/>
  <path class="cls-1" d="m434.84,132.99c-3.12,28.7-12.67,30.99-22.03,30.99h-9.36c-1.65,0-4.99-.43-4.99-5.81v-60.12h6.03c7.68,0,13.92,5.63,13.92,14.35v6.67h4.16v-43.48h-4.16v4.56c0,8.97-6.85,13.31-13.92,13.31h-6.03v-61.13h11.66c16.22,0,20.78,12.48,22.24,27.05h3.73v-31.64h-67.37v3.33h2.26c8.14,0,8.14,6.03,8.14,10.19v112.75c0,4.56-.43,11.02-7.71,11.02h-2.69v3.52h69.88v-35.55h-3.76Z"/>
  <path class="cls-1" d="m544.05,106.91c16.22-3.74,27.45-23.4,27.45-42.08,0-26.62-15.82-37.1-35.55-37.1h-39.32v3.99h1.65c7.92,0,7.92,7.21,7.92,12.19v134.94c0,7.47,0,13.18-7.71,13.18h-2.08v4.21h43.26c20.38,0,35.98-19.66,35.98-43.8,0-21.17-12.27-40.83-31.61-45.55Zm-18.51-74.19h5.2c8.11,0,21.2,2.01,21.2,35.12,0,21.39-8.54,36.84-18.08,36.84h-8.32V32.72Zm10.59,158.34h-5.6c-1.68,0-4.99-.26-4.99-6.74v-73.94h7.89c5.42,0,21.63,4.98,21.63,42.81,0,22.67-6.24,37.86-18.94,37.86Z"/>
  <path class="cls-1" d="m662.79,153.37l-17.47-58.87c9.36-6.24,16.64-18.91,16.64-32.43,0-22.24-15.6-34.33-35.16-34.33h-41.4v3.33h1.87c8.32,0,8.32,6.03,8.32,10.19v112.75c0,4.56-.21,11.02-8.32,11.02h-1.87v3.52h39.93v-3.52h-2.48c-7.5,0-7.92-6.46-7.92-11.02v-53.27l8.54.21c3.12,0,5.81,1.87,6.85,5.63l15.39,57.4c.43,1.25,2.29,4.56,6.46,4.56h22.46v-3.52c-6.43,0-9.36-3.73-11.84-11.66Zm-40.79-57.4c-1.65,0-7.07-.21-7.07-.21v-63.64h6.46c8.11,0,21.02,3.12,21.02,30.78,0,13.74-3.55,33.08-20.41,33.08Z"/>
  <path class="cls-1" d="m719.34,25.47c-25.37,0-42.22,33.26-42.22,71.96,0,36.38,15.6,73.4,42.22,73.4s42.22-38.06,42.22-73.4c0-38.71-16.43-71.96-42.22-71.96Zm0,140.59c-13.49,0-21.82-16.03-21.82-67.59s8.72-68.23,21.82-68.23,21.85,16.83,21.85,68.23-8.72,67.59-21.85,67.59Z"/>
  <path class="cls-1" d="m819.17,25.47c-25.37,0-42.22,33.26-42.22,71.96,0,36.38,15.6,73.4,42.22,73.4s42.22-38.06,42.22-73.4c0-38.71-16.43-71.96-42.22-71.96Zm0,140.59c-13.52,0-21.85-16.03-21.85-67.59s8.75-68.23,21.85-68.23,21.85,16.83,21.85,68.23-8.75,67.59-21.85,67.59Z"/>
  <path class="cls-1" d="m950.4,152.33l-29.31-76.74,17.04-30.17c3.73-6.46,7.89-14.35,18.3-14.35v-3.33h-30.99v3.33h3.12c3.76,0,5.42,2.08,5.42,4.59,0,1.22-.43,2.69-1.04,4.16-2.91,6.85-20.59,38.46-30.57,56.76v-55.32c0-4.16,0-10.19,8.51-10.19h1.25v-3.33h-38.67v3.33h1.25c8.32,0,8.32,6.03,8.32,10.19v112.75c0,4.99-.21,11.02-7.92,11.02h-1.65v3.52h38.67v-3.52h-1.44c-8.11,0-8.32-6.03-8.32-11.02v-44.73l7.07-12.7,22.46,62.63c1.25,3.3-.61,5.81-3.95,5.81h-2.08v3.52h39.32v-3.52c-5.02,0-10.4-1.04-14.78-12.7Z"/>
  <path class="cls-1" d="m1034.85,132.99c-3.12,28.7-12.7,30.99-22.06,30.99h-8.72c-1.68,0-5.02-.43-5.02-5.81V41.26c0-4.16,0-10.19,7.5-10.19h1.87v-3.33h-38.89v3.33h1.25c8.93,0,8.93,6.03,8.93,10.19v112.75c0,4.56-.4,11.02-7.68,11.02h-2.72v3.52h69.27v-35.55h-3.73Z"/>
  <path class="cls-1" d="m1094.52,27.74v3.33h3.76c4.16,0,6.85,2.91,5.6,6.46l-20.81,60.31-19.95-60.31c-.83-2.72.43-6.46,4.77-6.46h4.16v-3.33h-42.22v3.33h.83c7.92,0,9.58,3.34,11.26,7.71l25.76,70.71v44.52c0,4.99-.18,10.37-7.07,11.02h-3.33v3.52h41.21v-3.52h-3.33c-7.92-.64-8.11-6.03-8.11-11.02v-49.51l24.11-66.76c1.65-4.59,7.07-6.67,11.23-6.67h1.47v-3.33h-29.34Z"/>
  <path class="cls-1" d="m1189.37,27.74v3.33h3.12c8.32,0,8.72,10.4,8.72,16.22v76.55l-47-96.11h-25.37v3.33h2.26c8.32,0,9.58,9.58,9.58,17.9v104.4c0,5.84-1.04,11.66-9.36,11.66h-1.87v3.52h29.53v-3.52h-1.65c-8.11,0-9.79-5.81-9.79-11.66V60.2l54.71,108.34h5.84V47.29c0-5.81.61-16.22,8.93-16.22h2.69v-3.33h-30.35Z"/>
  <path class="cls-1" d="m78.21,152.14L54.19,21.1,50.33,0h-12.64l-.76,4.54-2.91,17.1-.12.77L13.1,150.64c-1.65,7.98-3.95,13.7-13.1,13.7v4.21h29.53v-4.21c-9.36-.51-10.19-5.71-9.79-9.71l6.06-40.36h25.37c4.13,23,7.04,40.58,7.07,40.58.83,7.47-1.04,9.49-8.11,9.49v4.21h39.5v-4.21c-5.38,0-9.76-2.75-11.41-12.2Zm-51.37-44.32l10.8-71.2,12.48,71.2h-23.28Z"/>
  <circle class="cls-1" cx="532.46" cy="4.91" r="4.91"/>
  <circle class="cls-1" cx="41.76" cy="191.36" r="4.91"/>
</svg>